<svg width="22" height="22" viewBox="0 0 22 22" fill="none" xmlns="http://www.w3.org/2000/svg">
<rect x="0.5" y="0.5" width="21" height="21" rx="4.5" fill="white" stroke="#EBB4A3"/>
<path d="M10.316 16.4094L6.18464 11.8897C5.99586 11.6824 5.89714 11.4087 5.91021 11.1286C5.92328 10.8486 6.04707 10.5852 6.25433 10.3964C6.46159 10.2076 6.73536 10.1089 7.0154 10.122C7.29545 10.1351 7.55883 10.2589 7.74761 10.4661L10.3559 13.3332L16.1498 7.3601C16.3485 7.18212 16.6073 7.08603 16.874 7.09114C17.1408 7.09625 17.3956 7.20217 17.5874 7.38762C17.7792 7.57308 17.8936 7.82429 17.9076 8.0907C17.9216 8.3571 17.8342 8.61895 17.663 8.82352L10.316 16.4094Z" fill="#EBB4A3"/>
</svg>
