<svg width="26" height="26" viewBox="0 0 26 26" fill="none" xmlns="http://www.w3.org/2000/svg">
<rect width="26" height="26" rx="5" fill="white"/>
<path d="M11.1408 18.1532L6.23624 12.7877C6.01213 12.5416 5.89494 12.2167 5.91045 11.8842C5.92597 11.5517 6.07293 11.2391 6.31898 11.015C6.56502 10.7909 6.89002 10.6737 7.22247 10.6892C7.55492 10.7047 7.86759 10.8517 8.0917 11.0977L11.1881 14.5013L18.0663 7.41044C18.3022 7.19915 18.6094 7.08508 18.926 7.09114C19.2426 7.09721 19.5452 7.22295 19.7729 7.44311C20.0005 7.66328 20.1363 7.9615 20.153 8.27776C20.1696 8.59402 20.0659 8.90486 19.8626 9.14771L11.1408 18.1532Z" fill="#EBB4A3"/>
</svg>
