<svg width="20" height="20" viewBox="0 0 20 20" fill="none" xmlns="http://www.w3.org/2000/svg">
<g clip-path="url(#clip0_1_280)">
<path d="M14.34 7.08H14.26V5.02C14.26 2.89 12.72 1.15 10.83 1.15H9.2C7.31 1.15 5.77 2.88 5.77 5.02V7.08H5.67C4.35 7.08 3.28 8.08 3.28 9.3V16.62C3.28 17.85 4.35 18.84 5.67 18.84H14.34C15.66 18.84 16.73 17.84 16.73 16.62V9.3C16.73 8.07 15.66 7.08 14.34 7.08ZM10.82 13.14L10.65 13.22V15.25C10.65 15.6 10.36 15.89 10.01 15.89C9.66 15.89 9.37 15.61 9.37 15.25V13.22L9.2 13.14C8.51 12.82 8.09 12.15 8.09 11.4C8.09 10.34 8.95 9.48 10.01 9.48C11.07 9.48 11.93 10.34 11.93 11.4C11.93 12.14 11.49 12.82 10.82 13.14ZM7.53 5.02C7.53 3.86 8.28 2.92 9.2 2.92H10.83C11.75 2.92 12.5 3.86 12.5 5.02V7.08H7.54V5.02H7.53Z" fill="white"/>
</g>
<defs>
<clipPath id="clip0_1_280">
<rect width="20" height="20" fill="white"/>
</clipPath>
</defs>
</svg>
