<svg width="20" height="20" viewBox="0 0 20 20" fill="none" xmlns="http://www.w3.org/2000/svg">
<g clip-path="url(#clip0_1_276)">
<path d="M12.37 11.42C11.77 11.88 11.09 12.16 10.34 12.16H9.67C8.92 12.16 8.23 11.87 7.63 11.42C4.92 12.16 2.21 13.84 2.21 15.65V17.81C2.23 18.13 2.49 18.4 2.83 18.43H17.24C17.53 18.4 17.8 18.12 17.81 17.79V15.65C17.81 13.84 15.08 12.16 12.38 11.42H12.37Z" fill="white"/>
<path d="M8.59 10.94C8.94 11.13 9.3 11.24 9.67 11.24H10.34C10.74 11.24 11.13 11.11 11.5 10.89C12.79 10.13 13.8 8.26 13.8 6.72V4.89C13.8 3.06 12.25 1.56 10.34 1.56H9.67C7.76 1.56 6.21 3.05 6.21 4.89V6.72C6.21 8.29 7.27 10.2 8.59 10.93V10.94Z" fill="white"/>
</g>
<defs>
<clipPath id="clip0_1_276">
<rect width="20" height="20" fill="white"/>
</clipPath>
</defs>
</svg>
