<svg width="20" height="20" viewBox="0 0 20 20" fill="none" xmlns="http://www.w3.org/2000/svg">
<g clip-path="url(#clip0_3_2691)">
<path d="M10.0001 13.3333C11.841 13.3333 13.3334 11.841 13.3334 10C13.3334 8.15905 11.841 6.66667 10.0001 6.66667C8.15913 6.66667 6.66675 8.15905 6.66675 10C6.66675 11.841 8.15913 13.3333 10.0001 13.3333Z" stroke="white" stroke-width="2" stroke-linecap="round" stroke-linejoin="round"/>
<path d="M13.3334 6.66667V10.8333C13.3334 11.4964 13.5968 12.1323 14.0657 12.6011C14.5345 13.0699 15.1704 13.3333 15.8334 13.3333C16.4965 13.3333 17.1324 13.0699 17.6012 12.6011C18.07 12.1323 18.3334 11.4964 18.3334 10.8333V10C18.3333 8.11919 17.6969 6.29373 16.5278 4.82044C15.3587 3.34715 13.7256 2.31269 11.894 1.88525C10.0624 1.45781 8.14003 1.66253 6.43955 2.46614C4.73906 3.26974 3.36042 4.62496 2.5278 6.31143C1.69519 7.99791 1.45756 9.91645 1.85356 11.7551C2.24956 13.5937 3.2559 15.2444 4.70895 16.4386C6.16199 17.6328 7.97628 18.3003 9.85681 18.3326C11.7373 18.365 13.5735 17.7602 15.0668 16.6167" stroke="white" stroke-width="2" stroke-linecap="round" stroke-linejoin="round"/>
</g>
<defs>
<clipPath id="clip0_3_2691">
<rect width="20" height="20" fill="white"/>
</clipPath>
</defs>
</svg>
