<svg width="261" height="83" viewBox="0 0 261 83" fill="none" xmlns="http://www.w3.org/2000/svg">
<path d="M244.925 79.0105V70.5079C244.925 70.3506 244.974 70.2224 245.073 70.1234C245.179 70.0186 245.307 69.9661 245.459 69.9661H247.421C247.579 69.9661 247.707 70.0186 247.807 70.1234C247.906 70.2224 247.956 70.3506 247.956 70.5079V71.0584C248.376 70.6506 248.788 70.339 249.191 70.1234C249.6 69.902 250.09 69.7914 250.662 69.7914C252.023 69.7914 253.054 70.3506 253.755 71.4691C254.841 70.3448 255.954 69.7855 257.092 69.7914C258.237 69.7914 259.139 70.1351 259.799 70.8225C260.465 71.5041 260.798 72.5615 260.798 73.9946V79.0105C260.798 79.1677 260.748 79.2959 260.649 79.3949C260.55 79.494 260.421 79.5435 260.264 79.5435H258.31C258.152 79.5435 258.021 79.494 257.916 79.3949C257.817 79.2901 257.767 79.1619 257.767 79.0105V73.9946C257.767 72.5964 257.259 71.9002 256.243 71.9061C255.624 71.9061 254.984 72.3517 254.324 73.2431C254.359 73.4936 254.377 73.7441 254.377 73.9946V79.0105C254.377 79.1677 254.324 79.2959 254.219 79.3949C254.12 79.494 253.994 79.5435 253.842 79.5435H251.889C251.731 79.5435 251.6 79.494 251.495 79.3949C251.395 79.2901 251.346 79.1619 251.346 79.0105V73.9946C251.346 72.5964 250.838 71.9002 249.821 71.9061C249.173 71.9061 248.551 72.3226 247.956 73.1557V79.0105C247.956 79.1677 247.903 79.2959 247.798 79.3949C247.699 79.494 247.573 79.5435 247.421 79.5435H245.459C245.301 79.5435 245.173 79.494 245.073 79.3949C244.974 79.2959 244.925 79.1677 244.925 79.0105Z" fill="white"/>
<path d="M234.43 78.4425C233.53 77.5919 233.081 76.3685 233.081 74.7723C233.081 73.1702 233.533 71.941 234.439 71.0846C235.344 70.2224 236.599 69.7914 238.205 69.7914C239.811 69.7914 241.064 70.2108 241.964 71.0497C242.863 71.8828 243.313 73.0799 243.313 74.6412V75.1393C243.313 75.2966 243.26 75.4277 243.155 75.5325C243.056 75.6316 242.927 75.6811 242.769 75.6811H236.173C236.232 76.3976 236.436 76.919 236.786 77.2453C237.143 77.5715 237.709 77.7346 238.486 77.7346C239.263 77.7346 239.794 77.5599 240.08 77.2103C240.366 76.8608 240.72 76.6831 241.14 76.6773H242.445C242.603 76.6773 242.732 76.7297 242.831 76.8346C242.936 76.9336 242.988 77.0618 242.988 77.2191C242.988 78.891 241.391 79.7241 238.197 79.7183C236.585 79.7183 235.329 79.293 234.43 78.4425ZM236.156 73.8373H240.229C240.171 72.4624 239.493 71.775 238.197 71.775C236.906 71.775 236.226 72.4624 236.156 73.8373Z" fill="white"/>
<path d="M230.208 77.6472L231.408 77.5424H231.732C231.889 77.5424 232.018 77.5919 232.117 77.6909C232.222 77.79 232.275 77.9181 232.275 78.0754V79.0105C232.275 79.1386 232.222 79.2551 232.117 79.36C232.018 79.459 231.889 79.5202 231.732 79.5435C231.136 79.66 230.359 79.7183 229.402 79.7183C226.89 79.7183 225.635 78.4075 225.635 75.786V67.5543C225.635 67.397 225.684 67.2688 225.784 67.1698C225.889 67.0649 226.017 67.0125 226.169 67.0125H228.131C228.283 67.0125 228.409 67.0649 228.508 67.1698C228.613 67.2688 228.666 67.397 228.666 67.5543V70.473H231.11C231.262 70.473 231.387 70.5225 231.487 70.6215C231.592 70.7205 231.644 70.8487 231.644 71.006V72.0459C231.644 72.2032 231.592 72.3313 231.487 72.4304C231.387 72.5294 231.262 72.5789 231.11 72.5789H228.666V75.786C228.666 76.3802 228.806 76.8404 229.086 77.1666C229.367 77.487 229.74 77.6472 230.208 77.6472Z" fill="white"/>
<path d="M214.352 72.6139C214.352 70.7322 215.873 69.7914 218.916 69.7914C222.116 69.7914 223.716 70.6273 223.716 72.2993C223.716 72.4508 223.667 72.5789 223.567 72.6838C223.468 72.7828 223.34 72.8323 223.182 72.8323H221.877C221.456 72.8323 221.103 72.6576 220.817 72.308C220.531 71.9527 219.967 71.775 219.126 71.775C217.97 71.775 217.392 72.0546 217.392 72.6139C217.392 72.876 217.616 73.0945 218.066 73.2693C218.522 73.444 219.074 73.5984 219.722 73.7324C220.376 73.8606 221.027 74.0266 221.675 74.2305C222.324 74.4344 222.872 74.7606 223.322 75.2092C223.778 75.652 224.005 76.2141 224.005 76.8957C224.005 78.7774 222.399 79.7183 219.187 79.7183C215.975 79.7183 214.369 78.8852 214.369 77.2191C214.369 77.0618 214.419 76.9336 214.518 76.8346C214.623 76.7297 214.755 76.6773 214.912 76.6773H216.218C216.638 76.6773 216.992 76.855 217.278 77.2103C217.564 77.5599 218.127 77.7346 218.968 77.7346C220.306 77.7346 220.974 77.455 220.974 76.8957C220.974 76.6336 220.747 76.4151 220.291 76.2404C219.841 76.0656 219.29 75.9112 218.635 75.7772C217.981 75.6374 217.33 75.4685 216.682 75.2704C216.04 75.0665 215.491 74.7402 215.035 74.2917C214.58 73.8431 214.352 73.2838 214.352 72.6139Z" fill="white"/>
<path d="M205.425 80.4523L206.573 80.6009C207.396 80.6009 207.971 79.9979 208.298 78.792C207.306 78.792 206.476 78.4949 205.811 77.9007C205.145 77.3006 204.573 76.2374 204.094 74.7111L202.788 70.4904C202.771 70.4438 202.762 70.3914 202.762 70.3331C202.762 70.2691 202.797 70.1933 202.867 70.1059C202.943 70.0186 203.054 69.972 203.2 69.9661H205.031C205.2 69.9661 205.361 70.0244 205.513 70.1409C205.67 70.2516 205.773 70.3914 205.819 70.5603L206.967 74.2655C207.253 75.1743 207.542 75.8034 207.834 76.153C208.132 76.5025 208.482 76.6773 208.885 76.6773L210.629 70.5603C210.675 70.3914 210.766 70.2516 210.9 70.1409C211.04 70.0244 211.195 69.9661 211.365 69.9661H213.213C213.359 69.9661 213.467 70.0127 213.537 70.1059C213.607 70.1992 213.642 70.2778 213.642 70.3419C213.642 70.4001 213.636 70.4497 213.625 70.4904L211.329 78.6522C210.921 80.0969 210.413 81.1281 209.805 81.7456C209.204 82.3631 208.427 82.6719 207.475 82.6719C206.523 82.6719 205.849 82.6369 205.451 82.567C205.06 82.4971 204.815 82.4097 204.716 82.3049C204.616 82.2058 204.567 82.0893 204.567 81.9553V80.9941C204.567 80.8368 204.616 80.7057 204.716 80.6009C204.815 80.5018 204.943 80.4523 205.101 80.4523H205.425Z" fill="white"/>
<path d="M192.276 72.6139C192.276 70.7322 193.798 69.7914 196.84 69.7914C200.041 69.7914 201.641 70.6273 201.641 72.2993C201.641 72.4508 201.591 72.5789 201.492 72.6838C201.393 72.7828 201.264 72.8323 201.106 72.8323H199.801C199.381 72.8323 199.027 72.6576 198.741 72.308C198.455 71.9527 197.891 71.775 197.051 71.775C195.894 71.775 195.316 72.0546 195.316 72.6139C195.316 72.876 195.541 73.0945 195.991 73.2693C196.446 73.444 196.998 73.5984 197.646 73.7324C198.3 73.8606 198.951 74.0266 199.6 74.2305C200.248 74.4344 200.797 74.7606 201.247 75.2092C201.702 75.652 201.93 76.2141 201.93 76.8957C201.93 78.7774 200.324 79.7183 197.112 79.7183C193.9 79.7183 192.294 78.8852 192.294 77.2191C192.294 77.0618 192.343 76.9336 192.443 76.8346C192.548 76.7297 192.679 76.6773 192.837 76.6773H194.142C194.563 76.6773 194.916 76.855 195.202 77.2103C195.488 77.5599 196.052 77.7346 196.893 77.7346C198.23 77.7346 198.899 77.455 198.899 76.8957C198.899 76.6336 198.671 76.4151 198.216 76.2404C197.766 76.0656 197.214 75.9112 196.56 75.7772C195.906 75.6374 195.255 75.4685 194.606 75.2704C193.964 75.0665 193.415 74.7402 192.96 74.2917C192.504 73.8431 192.276 73.2838 192.276 72.6139Z" fill="white"/>
<path d="M183.026 77.6472L184.226 77.5424H184.55C184.708 77.5424 184.836 77.5919 184.935 77.6909C185.04 77.79 185.093 77.9181 185.093 78.0754V79.0105C185.093 79.1386 185.04 79.2551 184.935 79.36C184.836 79.459 184.708 79.5202 184.55 79.5435C183.954 79.66 183.177 79.7183 182.22 79.7183C179.708 79.7183 178.453 78.4075 178.453 75.786V67.5543C178.453 67.397 178.503 67.2688 178.602 67.1698C178.707 67.0649 178.835 67.0125 178.987 67.0125H180.95C181.101 67.0125 181.227 67.0649 181.326 67.1698C181.431 67.2688 181.484 67.397 181.484 67.5543V70.473H183.928C184.08 70.473 184.205 70.5225 184.305 70.6215C184.41 70.7205 184.462 70.8487 184.462 71.006V72.0459C184.462 72.2032 184.41 72.3313 184.305 72.4304C184.205 72.5294 184.08 72.5789 183.928 72.5789H181.484V75.786C181.484 76.3802 181.624 76.8404 181.904 77.1666C182.185 77.487 182.558 77.6472 183.026 77.6472Z" fill="white"/>
<path d="M166.206 79.0105V70.5079C166.206 70.3506 166.256 70.2224 166.355 70.1234C166.46 70.0186 166.589 69.9661 166.741 69.9661H168.703C168.855 69.9661 168.98 70.0186 169.079 70.1234C169.185 70.2224 169.237 70.3506 169.237 70.5079V71.0584C170.242 70.2137 171.31 69.7914 172.443 69.7914C173.582 69.7914 174.508 70.138 175.22 70.8312C175.933 71.5187 176.289 72.5731 176.289 73.9946V79.0105C176.289 79.1619 176.236 79.2901 176.131 79.3949C176.032 79.494 175.904 79.5435 175.746 79.5435H173.792C173.641 79.5435 173.512 79.494 173.407 79.3949C173.308 79.2901 173.258 79.1619 173.258 79.0105V73.9946C173.258 72.6022 172.7 71.9061 171.585 71.9061C170.855 71.9061 170.072 72.3226 169.237 73.1557V79.0105C169.237 79.1619 169.185 79.2901 169.079 79.3949C168.98 79.494 168.855 79.5435 168.703 79.5435H166.741C166.589 79.5435 166.46 79.494 166.355 79.3949C166.256 79.2901 166.206 79.1619 166.206 79.0105Z" fill="white"/>
<path d="M155.712 78.4425C154.812 77.5919 154.363 76.3685 154.363 74.7723C154.363 73.1702 154.815 71.941 155.72 71.0846C156.626 70.2224 157.881 69.7914 159.487 69.7914C161.093 69.7914 162.346 70.2108 163.245 71.0497C164.145 71.8828 164.594 73.0799 164.594 74.6412V75.1393C164.594 75.2966 164.542 75.4277 164.437 75.5325C164.337 75.6316 164.209 75.6811 164.051 75.6811H157.455C157.513 76.3976 157.718 76.919 158.068 77.2453C158.424 77.5715 158.991 77.7346 159.768 77.7346C160.544 77.7346 161.076 77.5599 161.362 77.2103C161.648 76.8608 162.001 76.6831 162.422 76.6773H163.727C163.885 76.6773 164.013 76.7297 164.113 76.8346C164.218 76.9336 164.27 77.0618 164.27 77.2191C164.27 78.891 162.673 79.7241 159.478 79.7183C157.867 79.7183 156.611 79.293 155.712 78.4425ZM157.437 73.8373H161.511C161.452 72.4624 160.775 71.775 159.478 71.775C158.188 71.775 157.507 72.4624 157.437 73.8373Z" fill="white"/>
<path d="M136.877 79.0105V70.5079C136.877 70.3506 136.927 70.2224 137.026 70.1234C137.131 70.0186 137.26 69.9661 137.412 69.9661H139.374C139.532 69.9661 139.66 70.0186 139.759 70.1234C139.859 70.2224 139.908 70.3506 139.908 70.5079V71.0584C140.329 70.6506 140.741 70.339 141.143 70.1234C141.552 69.902 142.043 69.7914 142.615 69.7914C143.976 69.7914 145.007 70.3506 145.708 71.4691C146.794 70.3448 147.906 69.7855 149.045 69.7914C150.19 69.7914 151.092 70.1351 151.752 70.8225C152.418 71.5041 152.751 72.5615 152.751 73.9946V79.0105C152.751 79.1677 152.701 79.2959 152.602 79.3949C152.502 79.494 152.374 79.5435 152.216 79.5435H150.263C150.105 79.5435 149.974 79.494 149.869 79.3949C149.769 79.2901 149.72 79.1619 149.72 79.0105V73.9946C149.72 72.5964 149.212 71.9002 148.195 71.9061C147.576 71.9061 146.937 72.3517 146.277 73.2431C146.312 73.4936 146.329 73.7441 146.329 73.9946V79.0105C146.329 79.1677 146.277 79.2959 146.172 79.3949C146.073 79.494 145.947 79.5435 145.795 79.5435H143.842C143.684 79.5435 143.553 79.494 143.447 79.3949C143.348 79.2901 143.298 79.1619 143.298 79.0105V73.9946C143.298 72.5964 142.79 71.9002 141.774 71.9061C141.126 71.9061 140.504 72.3226 139.908 73.1557V79.0105C139.908 79.1677 139.856 79.2959 139.751 79.3949C139.651 79.494 139.526 79.5435 139.374 79.5435H137.412C137.254 79.5435 137.126 79.494 137.026 79.3949C136.927 79.2959 136.877 79.1677 136.877 79.0105Z" fill="white"/>
<path d="M126.383 78.4425C125.483 77.5919 125.034 76.3685 125.034 74.7723C125.034 73.1702 125.486 71.941 126.392 71.0846C127.297 70.2224 128.552 69.7914 130.158 69.7914C131.764 69.7914 133.017 70.2108 133.916 71.0497C134.816 71.8828 135.265 73.0799 135.265 74.6412V75.1393C135.265 75.2966 135.213 75.4277 135.108 75.5325C135.009 75.6316 134.88 75.6811 134.722 75.6811H128.126C128.184 76.3976 128.389 76.919 128.739 77.2453C129.095 77.5715 129.662 77.7346 130.439 77.7346C131.215 77.7346 131.747 77.5599 132.033 77.2103C132.319 76.8608 132.673 76.6831 133.093 76.6773H134.398C134.556 76.6773 134.684 76.7297 134.784 76.8346C134.889 76.9336 134.941 77.0618 134.941 77.2191C134.941 78.891 133.344 79.7241 130.15 79.7183C128.538 79.7183 127.282 79.293 126.383 78.4425ZM128.108 73.8373H132.182C132.124 72.4624 131.446 71.775 130.15 71.775C128.859 71.775 128.179 72.4624 128.108 73.8373Z" fill="white"/>
<path d="M117.763 78.8095C116.437 78.8095 115.365 78.4104 114.548 77.6123C113.736 76.8142 113.33 75.7073 113.33 74.2917C113.33 72.876 113.794 71.7721 114.723 70.9798C115.652 70.1875 116.983 69.7914 118.718 69.7914C119.564 69.7914 120.443 69.8875 121.354 70.0797C122.266 70.2661 122.952 70.4963 123.413 70.7701V78.8619C123.413 80.161 122.984 81.1193 122.125 81.7369C121.267 82.3602 120.061 82.6719 118.507 82.6719C116.96 82.6719 115.766 82.4767 114.925 82.0864C114.089 81.7019 113.672 81.064 113.672 80.1727C113.672 80.0154 113.721 79.8843 113.821 79.7794C113.926 79.6804 114.057 79.6309 114.215 79.6309H115.52C115.941 79.6309 116.277 79.7853 116.528 80.094C116.849 80.4902 117.418 80.6882 118.236 80.6882C119.059 80.6882 119.623 80.5543 119.927 80.2863C120.23 80.0183 120.382 79.5435 120.382 78.8619V78.4512C119.448 78.69 118.575 78.8095 117.763 78.8095ZM118.534 71.9061C117.15 71.9002 116.458 72.6984 116.458 74.3004C116.458 75.8966 117.132 76.6948 118.481 76.6948C119.042 76.6948 119.675 76.6074 120.382 76.4326V72.0983C119.88 71.9643 119.264 71.9002 118.534 71.9061Z" fill="white"/>
<path d="M102.783 78.9143C102.012 78.3784 101.627 77.621 101.627 76.6423C101.627 75.6636 102.012 74.9121 102.783 74.3878C103.56 73.8635 104.558 73.6013 105.779 73.6013H108.679C108.679 72.9197 108.536 72.4449 108.249 72.177C107.963 71.909 107.461 71.775 106.743 71.775C106.03 71.775 105.528 71.9527 105.236 72.308C104.95 72.6576 104.596 72.8323 104.176 72.8323H102.871C102.713 72.8323 102.582 72.7828 102.476 72.6838C102.377 72.5789 102.328 72.4508 102.328 72.2993C102.328 70.6273 103.919 69.7914 107.102 69.7914C108.492 69.7914 109.607 70.103 110.448 70.7264C111.289 71.3439 111.71 72.3022 111.71 73.6013V79.0105C111.71 79.1677 111.66 79.2959 111.561 79.3949C111.461 79.494 111.333 79.5435 111.175 79.5435H109.485C109.327 79.5435 109.198 79.494 109.099 79.3949C109 79.2901 108.95 79.1619 108.95 79.0105V78.7396C108.027 79.3979 106.962 79.7241 105.753 79.7183C104.55 79.7183 103.56 79.4503 102.783 78.9143ZM105.989 75.585C105.58 75.585 105.256 75.684 105.017 75.8821C104.783 76.0801 104.666 76.3365 104.666 76.6511C104.666 76.9656 104.789 77.2249 105.034 77.4288C105.28 77.6327 105.627 77.7346 106.077 77.7346C106.976 77.7346 107.843 77.4725 108.679 76.9482V75.585H105.989Z" fill="white"/>
<path d="M89.9232 79.0105V70.5079C89.9232 70.3506 89.9729 70.2224 90.0721 70.1234C90.1773 70.0186 90.3057 69.9661 90.4576 69.9661H92.4198C92.5717 69.9661 92.6973 70.0186 92.7965 70.1234C92.9017 70.2224 92.9542 70.3506 92.9542 70.5079V71.0584C93.9587 70.2137 95.0274 69.7914 96.1604 69.7914C97.2992 69.7914 98.2249 70.138 98.9374 70.8312C99.6499 71.5187 100.006 72.5731 100.006 73.9946V79.0105C100.006 79.1619 99.9535 79.2901 99.8484 79.3949C99.7491 79.494 99.6207 79.5435 99.463 79.5435H97.5095C97.3576 79.5435 97.2291 79.494 97.124 79.3949C97.0247 79.2901 96.9751 79.1619 96.9751 79.0105V73.9946C96.9751 72.6022 96.4174 71.9061 95.3019 71.9061C94.5719 71.9061 93.7893 72.3226 92.9542 73.1557V79.0105C92.9542 79.1619 92.9017 79.2901 92.7965 79.3949C92.6973 79.494 92.5717 79.5435 92.4198 79.5435H90.4576C90.3057 79.5435 90.1773 79.494 90.0721 79.3949C89.9729 79.2901 89.9232 79.1619 89.9232 79.0105Z" fill="white"/>
<path d="M78.8328 78.9143C78.062 78.3784 77.6765 77.621 77.6765 76.6423C77.6765 75.6636 78.062 74.9121 78.8328 74.3878C79.6096 73.8635 80.6082 73.6013 81.8288 73.6013H84.7284C84.7284 72.9197 84.5853 72.4449 84.2992 72.177C84.013 71.909 83.5107 71.775 82.7924 71.775C82.0799 71.775 81.5777 71.9527 81.2857 72.308C80.9995 72.6576 80.6462 72.8323 80.2257 72.8323H78.9204C78.7628 72.8323 78.6314 72.7828 78.5262 72.6838C78.427 72.5789 78.3773 72.4508 78.3773 72.2993C78.3773 70.6273 79.9687 69.7914 83.1516 69.7914C84.5415 69.7914 85.657 70.103 86.4979 70.7264C87.3389 71.3439 87.7594 72.3022 87.7594 73.6013V79.0105C87.7594 79.1677 87.7098 79.2959 87.6105 79.3949C87.5112 79.494 87.3827 79.5435 87.225 79.5435H85.5343C85.3766 79.5435 85.2482 79.494 85.1489 79.3949C85.0496 79.2901 85 79.1619 85 79.0105V78.7396C84.0772 79.3979 83.0114 79.7241 81.8025 79.7183C80.5995 79.7183 79.6096 79.4503 78.8328 78.9143ZM82.039 75.585C81.6302 75.585 81.3061 75.684 81.0667 75.8821C80.8331 76.0801 80.7163 76.3365 80.7163 76.6511C80.7163 76.9656 80.8389 77.2249 81.0842 77.4288C81.3295 77.6327 81.677 77.7346 82.1266 77.7346C83.026 77.7346 83.8933 77.4725 84.7284 76.9482V75.585H82.039Z" fill="white"/>
<path d="M60.1914 79.0105V70.5079C60.1914 70.3506 60.241 70.2224 60.3403 70.1234C60.4454 70.0186 60.5739 69.9661 60.7258 69.9661H62.688C62.8457 69.9661 62.9742 70.0186 63.0735 70.1234C63.1728 70.2224 63.2224 70.3506 63.2224 70.5079V71.0584C63.6429 70.6506 64.0546 70.339 64.4576 70.1234C64.8664 69.902 65.357 69.7914 65.9293 69.7914C67.29 69.7914 68.3208 70.3506 69.0216 71.4691C70.1078 70.3448 71.2204 69.7855 72.3592 69.7914C73.5039 69.7914 74.4061 70.1351 75.0661 70.8225C75.7318 71.5041 76.0647 72.5615 76.0647 73.9946V79.0105C76.0647 79.1677 76.0151 79.2959 75.9158 79.3949C75.8165 79.494 75.688 79.5435 75.5304 79.5435H73.5769C73.4192 79.5435 73.2878 79.494 73.1826 79.3949C73.0834 79.2901 73.0337 79.1619 73.0337 79.0105V73.9946C73.0337 72.5964 72.5256 71.9002 71.5095 71.9061C70.8904 71.9061 70.2509 72.3517 69.591 73.2431C69.626 73.4936 69.6436 73.7441 69.6436 73.9946V79.0105C69.6436 79.1677 69.591 79.2959 69.4859 79.3949C69.3866 79.494 69.261 79.5435 69.1092 79.5435H67.1557C66.998 79.5435 66.8666 79.494 66.7615 79.3949C66.6622 79.2901 66.6126 79.1619 66.6126 79.0105V73.9946C66.6126 72.5964 66.1045 71.9002 65.0883 71.9061C64.4401 71.9061 63.8181 72.3226 63.2224 73.1557V79.0105C63.2224 79.1677 63.1698 79.2959 63.0647 79.3949C62.9654 79.494 62.8399 79.5435 62.688 79.5435H60.7258C60.5681 79.5435 60.4396 79.494 60.3403 79.3949C60.241 79.2959 60.1914 79.1677 60.1914 79.0105Z" fill="white"/>
<path d="M50.3976 77.6472L51.5977 77.5424H51.9219C52.0795 77.5424 52.208 77.5919 52.3073 77.6909C52.4124 77.79 52.465 77.9181 52.465 78.0754V79.0105C52.465 79.1386 52.4124 79.2551 52.3073 79.36C52.208 79.459 52.0795 79.5202 51.9219 79.5435C51.3262 79.66 50.5494 79.7183 49.5917 79.7183C47.0804 79.7183 45.8248 78.4075 45.8248 75.786V67.5543C45.8248 67.397 45.8745 67.2688 45.9738 67.1698C46.0789 67.0649 46.2074 67.0125 46.3592 67.0125H48.3215C48.4733 67.0125 48.5989 67.0649 48.6981 67.1698C48.8033 67.2688 48.8558 67.397 48.8558 67.5543V70.473H51.2999C51.4517 70.473 51.5773 70.5225 51.6766 70.6215C51.7817 70.7205 51.8343 70.8487 51.8343 71.006V72.0459C51.8343 72.2032 51.7817 72.3313 51.6766 72.4304C51.5773 72.5294 51.4517 72.5789 51.2999 72.5789H48.8558V75.786C48.8558 76.3802 48.996 76.8404 49.2763 77.1666C49.5566 77.487 49.9304 77.6472 50.3976 77.6472Z" fill="white"/>
<path d="M35.3303 78.4425C34.4309 77.5919 33.9812 76.3685 33.9812 74.7723C33.9812 73.1702 34.4338 71.941 35.339 71.0846C36.2442 70.2224 37.4998 69.7914 39.1059 69.7914C40.7119 69.7914 41.9646 70.2108 42.864 71.0497C43.7633 71.8828 44.213 73.0799 44.213 74.6412V75.1393C44.213 75.2966 44.1604 75.4277 44.0553 75.5325C43.956 75.6316 43.8276 75.6811 43.6699 75.6811H37.0735C37.1319 76.3976 37.3363 76.919 37.6867 77.2453C38.043 77.5715 38.6095 77.7346 39.3862 77.7346C40.1629 77.7346 40.6944 77.5599 40.9805 77.2103C41.2667 76.8608 41.62 76.6831 42.0405 76.6773H43.3458C43.5034 76.6773 43.6319 76.7297 43.7312 76.8346C43.8363 76.9336 43.8889 77.0618 43.8889 77.2191C43.8889 78.891 42.2916 79.7241 39.0971 79.7183C37.4852 79.7183 36.2296 79.293 35.3303 78.4425ZM37.056 73.8373H41.1294C41.071 72.4624 40.3936 71.775 39.0971 71.775C37.8064 71.775 37.1261 72.4624 37.056 73.8373Z" fill="white"/>
<path d="M23.2412 72.6139C23.2412 70.7322 24.7625 69.7914 27.8052 69.7914C31.0056 69.7914 32.6058 70.6273 32.6058 72.2993C32.6058 72.4508 32.5561 72.5789 32.4568 72.6838C32.3576 72.7828 32.2291 72.8323 32.0714 72.8323H30.7661C30.3457 72.8323 29.9923 72.6576 29.7062 72.308C29.42 71.9527 28.8564 71.775 28.0155 71.775C26.8591 71.775 26.281 72.0546 26.281 72.6139C26.281 72.876 26.5058 73.0945 26.9555 73.2693C27.411 73.444 27.9629 73.5984 28.6112 73.7324C29.2652 73.8606 29.9164 74.0266 30.5647 74.2305C31.2129 74.4344 31.7619 74.7606 32.2116 75.2092C32.6671 75.652 32.8948 76.2141 32.8948 76.8957C32.8948 78.7774 31.2888 79.7183 28.0768 79.7183C24.8648 79.7183 23.2587 78.8852 23.2587 77.2191C23.2587 77.0618 23.3084 76.9336 23.4077 76.8346C23.5128 76.7297 23.6442 76.6773 23.8019 76.6773H25.1071C25.5276 76.6773 25.8809 76.855 26.1671 77.2103C26.4533 77.5599 27.0168 77.7346 27.8578 77.7346C29.1952 77.7346 29.8639 77.455 29.8639 76.8957C29.8639 76.6336 29.6361 76.4151 29.1806 76.2404C28.7309 76.0656 28.179 75.9112 27.5249 75.7772C26.8708 75.6374 26.2196 75.4685 25.5714 75.2704C24.929 75.0665 24.38 74.7402 23.9245 74.2917C23.469 73.8431 23.2412 73.2838 23.2412 72.6139Z" fill="white"/>
<path d="M12.5013 72.6139C12.5013 70.7322 14.0227 69.7914 17.0654 69.7914C20.2657 69.7914 21.8659 70.6273 21.8659 72.2993C21.8659 72.4508 21.8163 72.5789 21.717 72.6838C21.6177 72.7828 21.4892 72.8323 21.3315 72.8323H20.0263C19.6058 72.8323 19.2525 72.6576 18.9663 72.308C18.6801 71.9527 18.1166 71.775 17.2756 71.775C16.1193 71.775 15.5411 72.0546 15.5411 72.6139C15.5411 72.876 15.7659 73.0945 16.2156 73.2693C16.6712 73.444 17.223 73.5984 17.8713 73.7324C18.5254 73.8606 19.1765 74.0266 19.8248 74.2305C20.473 74.4344 21.022 74.7606 21.4717 75.2092C21.9272 75.652 22.155 76.2141 22.155 76.8957C22.155 78.7774 20.549 79.7183 17.3369 79.7183C14.1249 79.7183 12.5189 78.8852 12.5189 77.2191C12.5189 77.0618 12.5685 76.9336 12.6678 76.8346C12.7729 76.7297 12.9043 76.6773 13.062 76.6773H14.3672C14.7877 76.6773 15.1411 76.855 15.4272 77.2103C15.7134 77.5599 16.2769 77.7346 17.1179 77.7346C18.4553 77.7346 19.124 77.455 19.124 76.8957C19.124 76.6336 18.8962 76.4151 18.4407 76.2404C17.991 76.0656 17.4391 75.9112 16.785 75.7772C16.1309 75.6374 15.4798 75.4685 14.8315 75.2704C14.1891 75.0665 13.6402 74.7402 13.1846 74.2917C12.7291 73.8431 12.5013 73.2838 12.5013 72.6139Z" fill="white"/>
<path d="M1.95419 78.9143C1.1833 78.3784 0.797852 77.621 0.797852 76.6423C0.797852 75.6636 1.1833 74.9121 1.95419 74.3878C2.73092 73.8635 3.72957 73.6013 4.95014 73.6013H7.84974C7.84974 72.9197 7.70666 72.4449 7.42049 72.177C7.13433 71.909 6.63208 71.775 5.91375 71.775C5.20127 71.775 4.69902 71.9527 4.40702 72.308C4.12085 72.6576 3.76753 72.8323 3.34704 72.8323H2.04179C1.8841 72.8323 1.7527 72.7828 1.64758 72.6838C1.5483 72.5789 1.49866 72.4508 1.49866 72.2993C1.49866 70.6273 3.09008 69.7914 6.27292 69.7914C7.66286 69.7914 8.77831 70.103 9.61928 70.7264C10.4603 71.3439 10.8807 72.3022 10.8807 73.6013V79.0105C10.8807 79.1677 10.8311 79.2959 10.7318 79.3949C10.6325 79.494 10.5041 79.5435 10.3464 79.5435H8.65567C8.49799 79.5435 8.3695 79.494 8.27022 79.3949C8.17094 79.2901 8.1213 79.1619 8.1213 79.0105V78.7396C7.19857 79.3979 6.13276 79.7241 4.92386 79.7183C3.72081 79.7183 2.73092 79.4503 1.95419 78.9143ZM5.16039 75.585C4.75158 75.585 4.42746 75.684 4.18801 75.8821C3.95441 76.0801 3.83761 76.3365 3.83761 76.6511C3.83761 76.9656 3.96025 77.2249 4.20553 77.4288C4.45082 77.6327 4.7983 77.7346 5.24799 77.7346C6.14736 77.7346 7.01461 77.4725 7.84974 76.9482V75.585H5.16039Z" fill="white"/>
<path d="M176.856 42.4224C176.856 40.8948 177.31 39.8073 178.218 39.16C179.127 38.4869 180.009 38.1503 180.866 38.1503H185.499C187.835 38.1503 189.613 39.419 190.833 41.9564C192.053 44.4938 194.791 45.7625 199.048 45.7625L212.675 46.0343C217.243 46.0343 219.527 44.5455 219.527 41.568C219.527 39.3154 216.737 37.5418 211.156 36.2472C208.665 35.6517 205.913 35.0691 202.902 34.4995C199.891 33.904 196.894 33.1661 193.909 32.2858C190.95 31.4055 188.224 30.3698 185.733 29.1788C183.241 27.9877 181.216 26.3565 179.659 24.2852C178.127 22.188 177.362 19.7282 177.362 16.906C177.362 11.7018 179.218 7.7015 182.929 4.90519C186.641 2.08298 193.026 0.671875 202.085 0.671875L211.974 0.904901C217.295 0.904901 222.084 2.27717 226.34 5.0217C230.623 7.74034 232.765 11.1451 232.765 15.236C232.765 16.7636 232.31 17.864 231.402 18.5372C230.493 19.2104 229.624 19.547 228.793 19.547H224.16C221.824 19.547 220.046 18.2783 218.826 15.7409C217.606 13.1776 214.868 11.896 210.611 11.896L198.892 11.6629C194.324 11.6629 192.04 13.1517 192.04 16.1293C192.04 17.7605 193.48 19.0939 196.361 20.1296C199.268 21.1652 202.773 22.0844 206.874 22.887C211.001 23.6638 215.141 24.6089 219.293 25.7222C223.446 26.8355 226.963 28.6739 229.845 31.2372C232.752 33.7746 234.205 36.9463 234.205 40.7524C234.205 45.9566 232.336 49.9699 228.599 52.7921C224.887 55.5884 218.515 56.9866 209.482 56.9866L197.685 56.7535C192.364 56.7535 187.562 55.3942 183.28 52.6756C178.997 49.931 176.856 46.5133 176.856 42.4224Z" fill="white"/>
<path d="M97.5863 52.9474V4.74983C97.5863 3.68827 97.9367 2.795 98.6375 2.07003C99.3383 1.34506 100.195 0.982574 101.207 0.982574H117.053C118.065 0.982574 119.026 1.34506 119.934 2.07003C120.843 2.795 121.453 3.66238 121.764 4.67216L133.25 37.8396L144.735 4.67216C145.047 3.66238 145.657 2.795 146.565 2.07003C147.473 1.34506 148.434 0.982574 149.446 0.982574H165.292C166.304 0.982574 167.148 1.34506 167.823 2.07003C168.524 2.795 168.874 3.68827 168.874 4.74983V52.9474C168.874 54.009 168.511 54.9023 167.784 55.6272C167.083 56.3263 166.227 56.6758 165.214 56.6758H158.206C157.194 56.6758 156.324 56.3263 155.598 55.6272C154.897 54.9023 154.546 54.009 154.546 52.9474V15.003L140.803 53.1805C140.439 54.1385 139.804 54.967 138.895 55.6661C137.987 56.3393 137.026 56.6758 136.014 56.6758H130.446C129.434 56.6758 128.474 56.3393 127.565 55.6661C126.683 54.967 126.047 54.1385 125.658 53.1805L111.953 15.003V52.9474C111.953 54.009 111.589 54.9023 110.863 55.6272C110.162 56.3263 109.305 56.6758 108.293 56.6758H101.285C100.273 56.6758 99.4032 56.3263 98.6765 55.6272C97.9497 54.9023 97.5863 54.009 97.5863 52.9474Z" fill="white"/>
<path d="M26.4931 53.1028L36.2655 16.1293C38.913 6.05737 47.5304 1.00847 62.1176 0.982574H83.1029C84.0633 0.982574 84.8549 1.34506 85.4779 2.07003C86.1268 2.795 86.4512 3.63648 86.4512 4.59448V53.1028C86.4512 54.1126 86.0878 54.967 85.3611 55.6661C84.6343 56.3393 83.7648 56.6758 82.7525 56.6758H75.4329C74.3687 56.6758 73.4862 56.3393 72.7854 55.6661C72.1106 54.967 71.7732 54.0867 71.7732 53.0251V43.238H44.0912L41.4827 53.0251C41.2231 54.0867 40.6391 54.967 39.7306 55.6661C38.8222 56.3393 37.8618 56.6758 36.8495 56.6758H29.1796C28.1673 56.6758 27.4405 56.391 26.9993 55.8214C26.558 55.2259 26.3374 54.7081 26.3374 54.2679C26.3634 53.8278 26.4153 53.4394 26.4931 53.1028ZM46.9723 32.2469H71.7732V11.9736H60.677C58.1853 11.9736 56.005 12.6857 54.1361 14.1097C52.2933 15.5079 51.0474 17.398 50.3985 19.78L46.9723 32.2469Z" fill="white"/>
</svg>
